<mxfile host="65bd71144e">
    <diagram id="rWr11Ek52ALkJoC7Q38n" name="Page-1">
        <mxGraphModel dx="5462" dy="2324" grid="1" gridSize="10" guides="1" tooltips="1" connect="1" arrows="1" fold="1" page="1" pageScale="1" pageWidth="850" pageHeight="1100" math="0" shadow="0">
            <root>
                <mxCell id="0"/>
                <mxCell id="1" parent="0"/>
                <mxCell id="107" value="" style="rounded=0;whiteSpace=wrap;html=1;strokeColor=#0a0a0a;strokeWidth=1;fontSize=48;fontColor=#000000;fillColor=#FFFFFF;" vertex="1" parent="1">
                    <mxGeometry x="-180" y="220" width="2200" height="1760" as="geometry"/>
                </mxCell>
                <mxCell id="105" style="edgeStyle=none;html=1;strokeColor=#050505;strokeWidth=13;fontSize=24;fontColor=#000000;exitX=0.117;exitY=0.99;exitDx=0;exitDy=0;exitPerimeter=0;" edge="1" parent="1" source="96">
                    <mxGeometry relative="1" as="geometry">
                        <mxPoint x="1036" y="850" as="targetPoint"/>
                    </mxGeometry>
                </mxCell>
                <mxCell id="96" value="" style="rounded=1;whiteSpace=wrap;html=1;strokeWidth=10;fontSize=24;fillColor=#33FF99;strokeColor=#0a0a0a;" vertex="1" parent="1">
                    <mxGeometry x="930" y="275" width="910" height="480" as="geometry"/>
                </mxCell>
                <mxCell id="104" style="edgeStyle=none;html=1;exitX=0.906;exitY=1.004;exitDx=0;exitDy=0;fontSize=24;fontColor=#000000;strokeWidth=13;strokeColor=#050505;exitPerimeter=0;entryX=0.346;entryY=-0.01;entryDx=0;entryDy=0;entryPerimeter=0;" edge="1" parent="1" source="3" target="102">
                    <mxGeometry relative="1" as="geometry"/>
                </mxCell>
                <mxCell id="3" value="" style="rounded=1;whiteSpace=wrap;html=1;fillColor=#66FFFF;strokeWidth=10;strokeColor=#0d0c0c;" vertex="1" parent="1">
                    <mxGeometry x="-30" y="280" width="910" height="470" as="geometry"/>
                </mxCell>
                <mxCell id="4" value="&lt;font style=&quot;font-size: 48px;&quot; color=&quot;#000000&quot;&gt;Presentation layer&lt;/font&gt;" style="text;html=1;align=center;verticalAlign=middle;resizable=0;points=[];autosize=1;strokeColor=none;fillColor=none;" vertex="1" parent="1">
                    <mxGeometry x="220" y="280" width="410" height="70" as="geometry"/>
                </mxCell>
                <mxCell id="9" value="" style="edgeStyle=none;html=1;fontSize=36;fontColor=#000000;" edge="1" parent="1">
                    <mxGeometry relative="1" as="geometry">
                        <mxPoint x="80" y="400" as="sourcePoint"/>
                        <mxPoint x="10" y="400" as="targetPoint"/>
                    </mxGeometry>
                </mxCell>
                <mxCell id="13" value="" style="group" vertex="1" connectable="0" parent="1">
                    <mxGeometry x="-10" y="370" width="410" height="60" as="geometry"/>
                </mxCell>
                <mxCell id="14" value="&lt;font style=&quot;font-size: 36px;&quot;&gt;BubaEats.Contracts&lt;/font&gt;" style="text;html=1;align=center;verticalAlign=middle;resizable=1;points=[];autosize=1;strokeColor=none;fillColor=none;fontSize=36;fontColor=#000000;movable=1;rotatable=1;deletable=1;editable=1;connectable=1;" vertex="1" parent="13">
                    <mxGeometry x="70" width="340" height="60" as="geometry"/>
                </mxCell>
                <mxCell id="15" value="" style="verticalLabelPosition=bottom;html=1;verticalAlign=top;align=center;strokeColor=none;fillColor=#00BEF2;shape=mxgraph.azure.visual_studio_online;rounded=1;fontSize=24;fontColor=#000000;movable=1;resizable=1;rotatable=1;deletable=1;editable=1;connectable=1;" vertex="1" parent="13">
                    <mxGeometry y="11.25" width="50" height="37.5" as="geometry"/>
                </mxCell>
                <mxCell id="16" value="" style="rounded=0;whiteSpace=wrap;html=1;strokeColor=#000000;fontSize=48;fontColor=#000000;fillColor=#FFFFCC;" vertex="1" parent="1">
                    <mxGeometry x="-710" y="50" width="440" height="250" as="geometry"/>
                </mxCell>
                <mxCell id="12" value="" style="group" vertex="1" connectable="0" parent="1">
                    <mxGeometry x="-690" y="60" width="410" height="60" as="geometry"/>
                </mxCell>
                <mxCell id="10" value="&lt;font style=&quot;font-size: 36px;&quot;&gt;BubaEats.Contracts&lt;/font&gt;" style="text;html=1;align=center;verticalAlign=middle;resizable=1;points=[];autosize=1;strokeColor=none;fillColor=none;fontSize=36;fontColor=#000000;movable=1;rotatable=1;deletable=1;editable=1;connectable=1;" vertex="1" parent="12">
                    <mxGeometry x="70" width="340" height="60" as="geometry"/>
                </mxCell>
                <mxCell id="11" value="" style="verticalLabelPosition=bottom;html=1;verticalAlign=top;align=center;strokeColor=none;fillColor=#00BEF2;shape=mxgraph.azure.visual_studio_online;rounded=1;fontSize=24;fontColor=#000000;movable=1;resizable=1;rotatable=1;deletable=1;editable=1;connectable=1;" vertex="1" parent="12">
                    <mxGeometry y="11.25" width="50" height="37.5" as="geometry"/>
                </mxCell>
                <mxCell id="21" value="" style="group" vertex="1" connectable="0" parent="1">
                    <mxGeometry x="-690" y="126" width="138" height="70" as="geometry"/>
                </mxCell>
                <mxCell id="17" value="" style="aspect=fixed;html=1;points=[];align=center;image;fontSize=12;image=img/lib/azure2/general/Folder_Blank.svg;rounded=1;strokeColor=#000000;fontColor=#000000;fillColor=#FFFFCC;" vertex="1" parent="21">
                    <mxGeometry y="25" width="37.97" height="31" as="geometry"/>
                </mxCell>
                <mxCell id="18" value="&lt;font style=&quot;font-size: 24px;&quot;&gt;Folder&lt;/font&gt;" style="text;html=1;align=left;verticalAlign=middle;resizable=0;points=[];autosize=1;strokeColor=none;fillColor=none;fontSize=48;fontColor=#000000;" vertex="1" parent="21">
                    <mxGeometry x="48" width="90" height="70" as="geometry"/>
                </mxCell>
                <mxCell id="51" value="" style="group" vertex="1" connectable="0" parent="1">
                    <mxGeometry x="480" y="370" width="410" height="60" as="geometry"/>
                </mxCell>
                <mxCell id="52" value="&lt;font style=&quot;font-size: 36px;&quot;&gt;BubaEats.Api&lt;/font&gt;" style="text;html=1;align=left;verticalAlign=middle;resizable=1;points=[];autosize=1;strokeColor=none;fillColor=none;fontSize=36;fontColor=#000000;movable=1;rotatable=1;deletable=1;editable=1;connectable=1;" vertex="1" parent="51">
                    <mxGeometry x="70" width="290" height="60" as="geometry"/>
                </mxCell>
                <mxCell id="53" value="" style="verticalLabelPosition=bottom;html=1;verticalAlign=top;align=center;strokeColor=none;fillColor=#00BEF2;shape=mxgraph.azure.visual_studio_online;rounded=1;fontSize=24;fontColor=#000000;movable=1;resizable=1;rotatable=1;deletable=1;editable=1;connectable=1;" vertex="1" parent="51">
                    <mxGeometry y="11.25" width="50" height="37.5" as="geometry"/>
                </mxCell>
                <mxCell id="61" value="" style="group" vertex="1" connectable="0" parent="1">
                    <mxGeometry x="-690" y="220" width="280.00134831460673" height="40" as="geometry"/>
                </mxCell>
                <mxCell id="62" value="" style="aspect=fixed;html=1;points=[];align=center;image;fontSize=12;image=img/lib/azure2/general/File.svg;rounded=1;strokeColor=#000000;fontColor=#000000;fillColor=#FFFFCC;" vertex="1" parent="61">
                    <mxGeometry y="2.75" width="28" height="34.5" as="geometry"/>
                </mxCell>
                <mxCell id="63" value="File" style="text;html=1;align=left;verticalAlign=middle;resizable=0;points=[];autosize=1;strokeColor=none;fillColor=none;fontSize=24;fontColor=#000000;" vertex="1" parent="61">
                    <mxGeometry x="40.00134831460673" width="60" height="40" as="geometry"/>
                </mxCell>
                <mxCell id="64" value="" style="edgeStyle=none;html=1;fontSize=24;fontColor=#000000;" edge="1" parent="61" source="62" target="63">
                    <mxGeometry relative="1" as="geometry"/>
                </mxCell>
                <mxCell id="65" value="" style="group" vertex="1" connectable="0" parent="1">
                    <mxGeometry x="530" y="510" width="320.00134831460673" height="40" as="geometry"/>
                </mxCell>
                <mxCell id="66" value="" style="aspect=fixed;html=1;points=[];align=center;image;fontSize=12;image=img/lib/azure2/general/File.svg;rounded=1;strokeColor=#000000;fontColor=#000000;fillColor=#FFFFCC;" vertex="1" parent="65">
                    <mxGeometry y="2.75" width="28" height="34.5" as="geometry"/>
                </mxCell>
                <mxCell id="67" value="AuthenticationController" style="text;html=1;align=left;verticalAlign=middle;resizable=0;points=[];autosize=1;strokeColor=none;fillColor=none;fontSize=24;fontColor=#000000;" vertex="1" parent="65">
                    <mxGeometry x="40.00134831460673" width="280" height="40" as="geometry"/>
                </mxCell>
                <mxCell id="68" value="" style="edgeStyle=none;html=1;fontSize=24;fontColor=#000000;" edge="1" parent="65" source="66" target="67">
                    <mxGeometry relative="1" as="geometry"/>
                </mxCell>
                <mxCell id="73" value="" style="group;dashed=1;" vertex="1" connectable="0" parent="1">
                    <mxGeometry x="-10" y="440" width="380" height="220" as="geometry"/>
                </mxCell>
                <mxCell id="6" value="" style="rounded=0;whiteSpace=wrap;html=1;fontSize=24;fontColor=#000000;fillColor=none;strokeColor=#000000;" vertex="1" parent="73">
                    <mxGeometry width="380" height="220" as="geometry"/>
                </mxCell>
                <mxCell id="22" value="" style="group" vertex="1" connectable="0" parent="73">
                    <mxGeometry x="10" width="208" height="70" as="geometry"/>
                </mxCell>
                <mxCell id="23" value="" style="aspect=fixed;html=1;points=[];align=center;image;fontSize=12;image=img/lib/azure2/general/Folder_Blank.svg;rounded=1;strokeColor=#000000;fontColor=#000000;fillColor=#FFFFCC;" vertex="1" parent="22">
                    <mxGeometry y="25" width="37.97" height="31" as="geometry"/>
                </mxCell>
                <mxCell id="24" value="&lt;font style=&quot;font-size: 24px;&quot;&gt;Authorization&lt;/font&gt;" style="text;html=1;align=left;verticalAlign=middle;resizable=0;points=[];autosize=1;strokeColor=none;fillColor=none;fontSize=48;fontColor=#000000;" vertex="1" parent="22">
                    <mxGeometry x="48" width="160" height="70" as="geometry"/>
                </mxCell>
                <mxCell id="41" value="" style="group" vertex="1" connectable="0" parent="73">
                    <mxGeometry x="60" y="64.5" width="280.00134831460673" height="40" as="geometry"/>
                </mxCell>
                <mxCell id="29" value="" style="aspect=fixed;html=1;points=[];align=center;image;fontSize=12;image=img/lib/azure2/general/File.svg;rounded=1;strokeColor=#000000;fontColor=#000000;fillColor=#FFFFCC;" vertex="1" parent="41">
                    <mxGeometry y="2.75" width="28" height="34.5" as="geometry"/>
                </mxCell>
                <mxCell id="30" value="RegistrationRequest" style="text;html=1;align=left;verticalAlign=middle;resizable=0;points=[];autosize=1;strokeColor=none;fillColor=none;fontSize=24;fontColor=#000000;" vertex="1" parent="41">
                    <mxGeometry x="40.00134831460673" width="240" height="40" as="geometry"/>
                </mxCell>
                <mxCell id="40" value="" style="edgeStyle=none;html=1;fontSize=24;fontColor=#000000;" edge="1" parent="41" source="29" target="30">
                    <mxGeometry relative="1" as="geometry"/>
                </mxCell>
                <mxCell id="42" value="" style="group" vertex="1" connectable="0" parent="73">
                    <mxGeometry x="59" y="150" width="320.00134831460673" height="40" as="geometry"/>
                </mxCell>
                <mxCell id="43" value="" style="aspect=fixed;html=1;points=[];align=center;image;fontSize=12;image=img/lib/azure2/general/File.svg;rounded=1;strokeColor=#000000;fontColor=#000000;fillColor=#FFFFCC;" vertex="1" parent="42">
                    <mxGeometry y="2.75" width="28" height="34.5" as="geometry"/>
                </mxCell>
                <mxCell id="44" value="AuthenticationResponse" style="text;html=1;align=left;verticalAlign=middle;resizable=0;points=[];autosize=1;strokeColor=none;fillColor=none;fontSize=24;fontColor=#000000;" vertex="1" parent="42">
                    <mxGeometry x="40.00134831460673" width="280" height="40" as="geometry"/>
                </mxCell>
                <mxCell id="45" value="" style="edgeStyle=none;html=1;fontSize=24;fontColor=#000000;" edge="1" parent="42" source="43" target="44">
                    <mxGeometry relative="1" as="geometry"/>
                </mxCell>
                <mxCell id="50" value="" style="group" vertex="1" connectable="0" parent="73">
                    <mxGeometry x="60" y="104.5" width="280.00134831460673" height="40" as="geometry"/>
                </mxCell>
                <mxCell id="47" value="" style="aspect=fixed;html=1;points=[];align=center;image;fontSize=12;image=img/lib/azure2/general/File.svg;rounded=1;strokeColor=#000000;fontColor=#000000;fillColor=#FFFFCC;" vertex="1" parent="50">
                    <mxGeometry y="2.75" width="28" height="34.5" as="geometry"/>
                </mxCell>
                <mxCell id="48" value="LoginRequest" style="text;html=1;align=left;verticalAlign=middle;resizable=0;points=[];autosize=1;strokeColor=none;fillColor=none;fontSize=24;fontColor=#000000;" vertex="1" parent="50">
                    <mxGeometry x="40.00134831460673" width="170" height="40" as="geometry"/>
                </mxCell>
                <mxCell id="49" value="" style="edgeStyle=none;html=1;fontSize=24;fontColor=#000000;" edge="1" parent="50" source="47" target="48">
                    <mxGeometry relative="1" as="geometry"/>
                </mxCell>
                <mxCell id="74" value="" style="group;dashed=1;" vertex="1" connectable="0" parent="1">
                    <mxGeometry x="480" y="440" width="370" height="190" as="geometry"/>
                </mxCell>
                <mxCell id="54" value="" style="rounded=0;whiteSpace=wrap;html=1;fontSize=24;fontColor=#000000;fillColor=none;strokeColor=#000000;" vertex="1" parent="74">
                    <mxGeometry width="370" height="190" as="geometry"/>
                </mxCell>
                <mxCell id="55" value="" style="group" vertex="1" connectable="0" parent="74">
                    <mxGeometry x="20" width="188" height="70" as="geometry"/>
                </mxCell>
                <mxCell id="56" value="" style="aspect=fixed;html=1;points=[];align=center;image;fontSize=12;image=img/lib/azure2/general/Folder_Blank.svg;rounded=1;strokeColor=#000000;fontColor=#000000;fillColor=#FFFFCC;" vertex="1" parent="55">
                    <mxGeometry y="25" width="37.97" height="31" as="geometry"/>
                </mxCell>
                <mxCell id="57" value="&lt;font style=&quot;font-size: 24px;&quot;&gt;Controllers&lt;/font&gt;" style="text;html=1;align=left;verticalAlign=middle;resizable=0;points=[];autosize=1;strokeColor=none;fillColor=none;fontSize=48;fontColor=#000000;" vertex="1" parent="55">
                    <mxGeometry x="48" width="140" height="70" as="geometry"/>
                </mxCell>
                <mxCell id="69" value="" style="group" vertex="1" connectable="0" parent="74">
                    <mxGeometry x="10" y="130" width="320.00134831460673" height="40" as="geometry"/>
                </mxCell>
                <mxCell id="70" value="" style="aspect=fixed;html=1;points=[];align=center;image;fontSize=12;image=img/lib/azure2/general/File.svg;rounded=1;strokeColor=#000000;fontColor=#000000;fillColor=#FFFFCC;" vertex="1" parent="69">
                    <mxGeometry y="2.75" width="28" height="34.5" as="geometry"/>
                </mxCell>
                <mxCell id="71" value="Programm" style="text;html=1;align=left;verticalAlign=middle;resizable=0;points=[];autosize=1;strokeColor=none;fillColor=none;fontSize=24;fontColor=#000000;" vertex="1" parent="69">
                    <mxGeometry x="40.00134831460673" width="140" height="40" as="geometry"/>
                </mxCell>
                <mxCell id="72" value="" style="edgeStyle=none;html=1;fontSize=24;fontColor=#000000;" edge="1" parent="69" source="70" target="71">
                    <mxGeometry relative="1" as="geometry"/>
                </mxCell>
                <mxCell id="76" value="&lt;font style=&quot;font-size: 48px;&quot; color=&quot;#000000&quot;&gt;Infrastructure layer&lt;/font&gt;" style="text;html=1;align=center;verticalAlign=middle;resizable=0;points=[];autosize=1;strokeColor=none;fillColor=none;" vertex="1" parent="1">
                    <mxGeometry x="1175" y="290" width="420" height="70" as="geometry"/>
                </mxCell>
                <mxCell id="77" value="" style="group" vertex="1" connectable="0" parent="1">
                    <mxGeometry x="960" y="370" width="460" height="60" as="geometry"/>
                </mxCell>
                <mxCell id="78" value="&lt;font style=&quot;font-size: 36px;&quot;&gt;BubaEats.Infrastructure&lt;/font&gt;" style="text;html=1;align=center;verticalAlign=middle;resizable=1;points=[];autosize=1;strokeColor=none;fillColor=none;fontSize=36;fontColor=#000000;movable=1;rotatable=1;deletable=1;editable=1;connectable=1;" vertex="1" parent="77">
                    <mxGeometry x="41.81818181818181" width="418.1818181818182" height="60" as="geometry"/>
                </mxCell>
                <mxCell id="79" value="" style="verticalLabelPosition=bottom;html=1;verticalAlign=top;align=center;strokeColor=none;fillColor=#00BEF2;shape=mxgraph.azure.visual_studio_online;rounded=1;fontSize=24;fontColor=#000000;movable=1;resizable=1;rotatable=1;deletable=1;editable=1;connectable=1;" vertex="1" parent="77">
                    <mxGeometry y="11.25" width="52.27272727272727" height="37.5" as="geometry"/>
                </mxCell>
                <mxCell id="97" value="" style="group;imageAspect=1;dashed=1;" vertex="1" connectable="0" parent="1">
                    <mxGeometry x="1170" y="500" width="300" height="150" as="geometry"/>
                </mxCell>
                <mxCell id="98" value="" style="aspect=fixed;html=1;points=[];align=center;image;fontSize=12;image=img/lib/azure2/general/File.svg;rounded=1;strokeColor=#000000;fontColor=#000000;fillColor=#FFFFCC;" vertex="1" parent="97">
                    <mxGeometry y="2.75" width="28" height="34.5" as="geometry"/>
                </mxCell>
                <mxCell id="99" value="Extensions" style="text;html=1;align=left;verticalAlign=middle;resizable=0;points=[];autosize=1;strokeColor=none;fillColor=none;fontSize=24;fontColor=#000000;" vertex="1" parent="97">
                    <mxGeometry x="40.00134831460673" width="140" height="40" as="geometry"/>
                </mxCell>
                <mxCell id="100" value="" style="edgeStyle=none;html=1;fontSize=24;fontColor=#000000;" edge="1" parent="97" source="98" target="99">
                    <mxGeometry relative="1" as="geometry"/>
                </mxCell>
                <mxCell id="101" value="" style="rounded=0;whiteSpace=wrap;html=1;strokeColor=#000000;strokeWidth=1;fontSize=24;fontColor=#000000;fillColor=none;dashed=1;" vertex="1" parent="97">
                    <mxGeometry x="-10" y="-10" width="310" height="80" as="geometry"/>
                </mxCell>
                <mxCell id="132" value="" style="edgeStyle=none;html=1;strokeColor=#050505;strokeWidth=13;fontSize=48;fontColor=#000000;" edge="1" parent="1" source="102" target="131">
                    <mxGeometry relative="1" as="geometry"/>
                </mxCell>
                <mxCell id="102" value="" style="rounded=1;whiteSpace=wrap;html=1;fillColor=#FF66B3;strokeWidth=10;strokeColor=#0d0c0c;" vertex="1" parent="1">
                    <mxGeometry x="480" y="855" width="910" height="470" as="geometry"/>
                </mxCell>
                <mxCell id="106" value="&lt;font style=&quot;font-size: 48px;&quot;&gt;Application Layer&lt;/font&gt;" style="text;html=1;align=center;verticalAlign=middle;resizable=0;points=[];autosize=1;strokeColor=none;fillColor=none;fontSize=24;fontColor=#000000;" vertex="1" parent="1">
                    <mxGeometry x="740" y="860" width="390" height="70" as="geometry"/>
                </mxCell>
                <mxCell id="108" value="" style="group" vertex="1" connectable="0" parent="1">
                    <mxGeometry x="550" y="970" width="410" height="120" as="geometry"/>
                </mxCell>
                <mxCell id="109" value="" style="aspect=fixed;html=1;points=[];align=center;image;fontSize=12;image=img/lib/azure2/general/Folder_Blank.svg;rounded=1;strokeColor=#000000;fontColor=#000000;fillColor=#FFFFCC;" vertex="1" parent="108">
                    <mxGeometry y="25" width="37.97" height="31" as="geometry"/>
                </mxCell>
                <mxCell id="110" value="&lt;font style=&quot;font-size: 24px;&quot;&gt;Services&lt;/font&gt;" style="text;html=1;align=left;verticalAlign=middle;resizable=0;points=[];autosize=1;strokeColor=none;fillColor=none;fontSize=48;fontColor=#000000;" vertex="1" parent="108">
                    <mxGeometry x="48" width="120" height="70" as="geometry"/>
                </mxCell>
                <mxCell id="111" value="" style="group" vertex="1" connectable="0" parent="108">
                    <mxGeometry x="37.97000000000003" y="50" width="228" height="70" as="geometry"/>
                </mxCell>
                <mxCell id="112" value="" style="aspect=fixed;html=1;points=[];align=center;image;fontSize=12;image=img/lib/azure2/general/Folder_Blank.svg;rounded=1;strokeColor=#000000;fontColor=#000000;fillColor=#FFFFCC;" vertex="1" parent="111">
                    <mxGeometry y="25" width="37.97" height="31" as="geometry"/>
                </mxCell>
                <mxCell id="113" value="&lt;font style=&quot;font-size: 24px;&quot;&gt;Authentication&lt;/font&gt;" style="text;html=1;align=left;verticalAlign=middle;resizable=0;points=[];autosize=1;strokeColor=none;fillColor=none;fontSize=48;fontColor=#000000;" vertex="1" parent="111">
                    <mxGeometry x="48" width="180" height="70" as="geometry"/>
                </mxCell>
                <mxCell id="114" value="" style="group" vertex="1" connectable="0" parent="1">
                    <mxGeometry x="610" y="1090" width="280.00134831460673" height="40" as="geometry"/>
                </mxCell>
                <mxCell id="115" value="" style="aspect=fixed;html=1;points=[];align=center;image;fontSize=12;image=img/lib/azure2/general/File.svg;rounded=1;strokeColor=#000000;fontColor=#000000;fillColor=#FFFFCC;" vertex="1" parent="114">
                    <mxGeometry y="2.75" width="28" height="34.5" as="geometry"/>
                </mxCell>
                <mxCell id="116" value="AuthResult" style="text;html=1;align=left;verticalAlign=middle;resizable=0;points=[];autosize=1;strokeColor=none;fillColor=none;fontSize=24;fontColor=#000000;" vertex="1" parent="114">
                    <mxGeometry x="40.00134831460673" width="140" height="40" as="geometry"/>
                </mxCell>
                <mxCell id="117" value="" style="edgeStyle=none;html=1;fontSize=24;fontColor=#000000;" edge="1" parent="114" source="115" target="116">
                    <mxGeometry relative="1" as="geometry"/>
                </mxCell>
                <mxCell id="119" value="" style="group" vertex="1" connectable="0" parent="1">
                    <mxGeometry x="610" y="1130" width="280.00134831460673" height="70" as="geometry"/>
                </mxCell>
                <mxCell id="120" value="" style="aspect=fixed;html=1;points=[];align=center;image;fontSize=12;image=img/lib/azure2/general/File.svg;rounded=1;strokeColor=#000000;fontColor=#000000;fillColor=#FFFFCC;" vertex="1" parent="119">
                    <mxGeometry y="2.75" width="28" height="34.5" as="geometry"/>
                </mxCell>
                <mxCell id="121" value="AuthService" style="text;html=1;align=left;verticalAlign=middle;resizable=0;points=[];autosize=1;strokeColor=none;fillColor=none;fontSize=24;fontColor=#000000;" vertex="1" parent="119">
                    <mxGeometry x="40.00134831460673" width="150" height="40" as="geometry"/>
                </mxCell>
                <mxCell id="122" value="" style="edgeStyle=none;html=1;fontSize=24;fontColor=#000000;" edge="1" parent="119" source="120" target="121">
                    <mxGeometry relative="1" as="geometry"/>
                </mxCell>
                <mxCell id="123" value="" style="group" vertex="1" connectable="0" parent="1">
                    <mxGeometry x="610" y="1170" width="280.00134831460673" height="40" as="geometry"/>
                </mxCell>
                <mxCell id="124" value="" style="aspect=fixed;html=1;points=[];align=center;image;fontSize=12;image=img/lib/azure2/general/File.svg;rounded=1;strokeColor=#000000;fontColor=#000000;fillColor=#FFFFCC;" vertex="1" parent="123">
                    <mxGeometry y="2.75" width="28" height="34.5" as="geometry"/>
                </mxCell>
                <mxCell id="125" value="IAuthService" style="text;html=1;align=left;verticalAlign=middle;resizable=0;points=[];autosize=1;strokeColor=none;fillColor=none;fontSize=24;fontColor=#000000;" vertex="1" parent="123">
                    <mxGeometry x="40.00134831460673" width="160" height="40" as="geometry"/>
                </mxCell>
                <mxCell id="126" value="" style="edgeStyle=none;html=1;fontSize=24;fontColor=#000000;" edge="1" parent="123" source="124" target="125">
                    <mxGeometry relative="1" as="geometry"/>
                </mxCell>
                <mxCell id="127" value="" style="group" vertex="1" connectable="0" parent="1">
                    <mxGeometry x="560" y="1210" width="280.00134831460673" height="40" as="geometry"/>
                </mxCell>
                <mxCell id="128" value="" style="aspect=fixed;html=1;points=[];align=center;image;fontSize=12;image=img/lib/azure2/general/File.svg;rounded=1;strokeColor=#000000;fontColor=#000000;fillColor=#FFFFCC;" vertex="1" parent="127">
                    <mxGeometry y="2.75" width="28" height="34.5" as="geometry"/>
                </mxCell>
                <mxCell id="129" value="Extensions" style="text;html=1;align=left;verticalAlign=middle;resizable=0;points=[];autosize=1;strokeColor=none;fillColor=none;fontSize=24;fontColor=#000000;" vertex="1" parent="127">
                    <mxGeometry x="40.00134831460673" width="140" height="40" as="geometry"/>
                </mxCell>
                <mxCell id="130" value="" style="edgeStyle=none;html=1;fontSize=24;fontColor=#000000;" edge="1" parent="127" source="128" target="129">
                    <mxGeometry relative="1" as="geometry"/>
                </mxCell>
                <mxCell id="131" value="" style="rounded=1;whiteSpace=wrap;html=1;fillColor=#FFE6CC;strokeWidth=10;strokeColor=#0d0c0c;" vertex="1" parent="1">
                    <mxGeometry x="480" y="1400" width="910" height="470" as="geometry"/>
                </mxCell>
                <mxCell id="133" value="&lt;font style=&quot;font-size: 48px;&quot; color=&quot;#000000&quot;&gt;Domain layer&lt;/font&gt;" style="text;html=1;align=center;verticalAlign=middle;resizable=0;points=[];autosize=1;strokeColor=none;fillColor=none;" vertex="1" parent="1">
                    <mxGeometry x="765" y="1420" width="310" height="70" as="geometry"/>
                </mxCell>
                <mxCell id="134" value="" style="group" vertex="1" connectable="0" parent="1">
                    <mxGeometry x="520" y="1490" width="460" height="60" as="geometry"/>
                </mxCell>
                <mxCell id="135" value="&lt;font style=&quot;font-size: 36px;&quot;&gt;BubaEats.Domain&lt;/font&gt;" style="text;html=1;align=center;verticalAlign=middle;resizable=1;points=[];autosize=1;strokeColor=none;fillColor=none;fontSize=36;fontColor=#000000;movable=1;rotatable=1;deletable=1;editable=1;connectable=1;" vertex="1" parent="134">
                    <mxGeometry x="95.81818181818181" width="310" height="60" as="geometry"/>
                </mxCell>
                <mxCell id="136" value="" style="verticalLabelPosition=bottom;html=1;verticalAlign=top;align=center;strokeColor=none;fillColor=#00BEF2;shape=mxgraph.azure.visual_studio_online;rounded=1;fontSize=24;fontColor=#000000;movable=1;resizable=1;rotatable=1;deletable=1;editable=1;connectable=1;" vertex="1" parent="134">
                    <mxGeometry y="11.25" width="52.27272727272727" height="37.5" as="geometry"/>
                </mxCell>
                <mxCell id="137" value="" style="group" vertex="1" connectable="0" parent="1">
                    <mxGeometry x="500" y="920" width="460" height="60" as="geometry"/>
                </mxCell>
                <mxCell id="138" value="&lt;font style=&quot;font-size: 36px;&quot;&gt;BubaEats.Application&lt;/font&gt;" style="text;html=1;align=center;verticalAlign=middle;resizable=1;points=[];autosize=1;strokeColor=none;fillColor=none;fontSize=36;fontColor=#000000;movable=1;rotatable=1;deletable=1;editable=1;connectable=1;" vertex="1" parent="137">
                    <mxGeometry x="65.81818181818181" width="370" height="60" as="geometry"/>
                </mxCell>
                <mxCell id="139" value="" style="verticalLabelPosition=bottom;html=1;verticalAlign=top;align=center;strokeColor=none;fillColor=#00BEF2;shape=mxgraph.azure.visual_studio_online;rounded=1;fontSize=24;fontColor=#000000;movable=1;resizable=1;rotatable=1;deletable=1;editable=1;connectable=1;" vertex="1" parent="137">
                    <mxGeometry y="11.25" width="52.27272727272727" height="37.5" as="geometry"/>
                </mxCell>
                <mxCell id="140" value="" style="rounded=0;whiteSpace=wrap;html=1;dashed=1;strokeColor=#0a0a0a;strokeWidth=1;fontSize=48;fontColor=#000000;fillColor=none;" vertex="1" parent="1">
                    <mxGeometry x="700" y="1560" width="450" height="225" as="geometry"/>
                </mxCell>
            </root>
        </mxGraphModel>
    </diagram>
</mxfile>